<svg xmlns="http://www.w3.org/2000/svg" xmlns:xlink="http://www.w3.org/1999/xlink" width="500" zoomAndPan="magnify" viewBox="0 0 375 374.999991" height="500" preserveAspectRatio="xMidYMid meet" version="1.0"><defs><g/><clipPath id="61f4014905"><path d="M 93 132.769531 L 349 132.769531 L 349 223.304688 L 93 223.304688 Z M 93 132.769531 " clip-rule="nonzero"/></clipPath><clipPath id="67439ca995"><path d="M 169.601562 132.769531 L 342.949219 132.769531 C 344.898438 132.769531 346.679688 133.882812 347.53125 135.640625 C 348.382812 137.394531 348.15625 139.484375 346.949219 141.015625 L 288.574219 215.058594 C 284.46875 220.265625 278.203125 223.304688 271.574219 223.304688 L 98.222656 223.304688 C 96.273438 223.304688 94.492188 222.191406 93.640625 220.433594 C 92.789062 218.679688 93.015625 216.589844 94.226562 215.058594 L 152.601562 141.015625 C 156.703125 135.808594 162.96875 132.769531 169.601562 132.769531 Z M 169.601562 132.769531 " clip-rule="nonzero"/></clipPath><clipPath id="528318cab6"><path d="M 141 144 L 176.621094 144 L 176.621094 211.660156 L 141 211.660156 Z M 141 144 " clip-rule="nonzero"/></clipPath><clipPath id="6673afb099"><path d="M 167.191406 104.226562 L 323.039062 104.226562 L 323.039062 143.636719 L 167.191406 143.636719 Z M 167.191406 104.226562 " clip-rule="nonzero"/></clipPath><clipPath id="a8e469bb2e"><path d="M 21.550781 115.476562 L 64.542969 115.476562 L 64.542969 150.40625 L 21.550781 150.40625 Z M 21.550781 115.476562 " clip-rule="nonzero"/></clipPath></defs><g clip-path="url(#61f4014905)"><g clip-path="url(#67439ca995)"><path fill="#9a702b" d="M 87.722656 132.769531 L 353.449219 132.769531 L 353.449219 223.304688 L 87.722656 223.304688 Z M 87.722656 132.769531 " fill-opacity="1" fill-rule="nonzero"/></g></g><g fill="#000000" fill-opacity="1"><g transform="translate(23.754554, 211.826428)"><g><path d="M 11.714844 -58.171875 L 11.714844 -37.832031 L 12.03125 -37.832031 L 12.425781 -38.78125 L 19.550781 -58.171875 L 27.859375 -58.171875 L 20.023438 -39.019531 L 28.886719 0 L 20.578125 0 L 14.640625 -25.328125 L 14.40625 -26.511719 L 14.167969 -26.511719 L 13.691406 -25.328125 L 11.714844 -20.578125 L 11.714844 0 L 3.164062 0 L 3.164062 -58.171875 Z M 11.714844 -58.171875 "/></g></g></g><g fill="#000000" fill-opacity="1"><g transform="translate(48.922047, 211.826428)"><g><path d="M 3.164062 -58.171875 L 11.160156 -58.171875 L 11.160156 -50.179688 L 3.164062 -50.179688 Z M 3.164062 0 L 3.164062 -43.292969 L 11.160156 -43.292969 L 11.160156 0 Z M 3.164062 0 "/></g></g></g><g fill="#000000" fill-opacity="1"><g transform="translate(58.735566, 211.826428)"><g><path d="M 11.160156 0 L 3.164062 0 L 3.164062 -43.292969 L 11.160156 -43.292969 L 11.160156 -39.652344 C 11.316406 -39.730469 11.632812 -40.046875 12.109375 -40.523438 C 12.980469 -41.394531 14.167969 -42.582031 15.589844 -43.371094 C 16.304688 -43.765625 16.9375 -43.925781 17.648438 -43.925781 C 19.785156 -43.925781 21.289062 -42.660156 22.238281 -41.078125 C 23.191406 -39.414062 23.664062 -37.277344 23.664062 -35.457031 L 23.664062 0 L 15.671875 0 L 15.671875 -34.269531 C 15.671875 -35.933594 14.722656 -36.167969 13.769531 -36.167969 C 12.902344 -36.167969 12.425781 -35.695312 11.871094 -35.140625 C 11.632812 -34.824219 11.398438 -34.507812 11.160156 -34.113281 Z M 11.160156 0 "/></g></g></g><g fill="#000000" fill-opacity="1"><g transform="translate(80.895569, 211.826428)"><g><path d="M 22.714844 -20.894531 C 22.476562 -16.859375 21.050781 -14.007812 18.28125 -11.871094 C 16.859375 -10.765625 14.878906 -10.210938 12.425781 -10.210938 C 12.1875 -10.210938 11.949219 -10.210938 11.714844 -10.210938 C 11.476562 -10.210938 11.160156 -10.210938 10.921875 -10.289062 C 10.210938 -9.65625 9.8125 -9.023438 9.8125 -8.308594 C 9.8125 -7.359375 10.605469 -6.804688 11.792969 -6.488281 C 12.980469 -6.09375 14.40625 -5.855469 15.90625 -5.621094 C 18.441406 -5.300781 21.132812 -4.667969 23.347656 -3.164062 C 25.484375 -1.660156 26.988281 0.632812 26.988281 4.433594 C 26.988281 8.625 25.167969 11.476562 22.636719 13.136719 C 20.023438 14.800781 16.542969 15.511719 13.296875 15.511719 C 9.496094 15.433594 6.253906 14.878906 4.035156 13.613281 C 1.742188 12.347656 0.476562 10.289062 0.476562 7.125 C 0.476562 5.621094 1.265625 4.351562 2.453125 3.246094 C 3.640625 2.136719 5.222656 1.265625 6.726562 0.554688 C 4.117188 -0.160156 1.898438 -1.820312 1.898438 -5.222656 C 1.898438 -6.488281 2.613281 -7.757812 3.5625 -8.945312 C 4.511719 -10.128906 5.699219 -11.082031 6.886719 -11.714844 C 4.589844 -13.21875 3.480469 -15.589844 2.929688 -17.570312 C 2.613281 -18.757812 2.375 -19.945312 2.296875 -21.132812 L 2.296875 -32.925781 C 2.613281 -36.960938 3.878906 -39.890625 6.648438 -42.183594 C 7.992188 -43.371094 9.972656 -43.925781 12.425781 -43.925781 C 16.460938 -43.925781 18.914062 -42.105469 20.417969 -39.96875 C 20.972656 -40.523438 21.921875 -41.472656 23.191406 -42.34375 C 24.375 -43.214844 25.722656 -43.925781 26.988281 -43.925781 L 26.988281 -36.800781 C 24.851562 -36.800781 23.269531 -36.40625 22.320312 -35.851562 C 22.398438 -35.457031 22.476562 -35.0625 22.554688 -34.824219 C 22.554688 -34.507812 22.554688 -34.191406 22.636719 -33.953125 C 22.714844 -33.714844 22.714844 -33.398438 22.714844 -33.160156 Z M 14.878906 -32.609375 C 14.878906 -34.113281 14.5625 -35.0625 13.929688 -35.933594 C 13.613281 -36.328125 13.136719 -36.566406 12.425781 -36.566406 C 11.160156 -36.566406 10.527344 -35.535156 10.289062 -34.585938 C 10.128906 -34.03125 10.050781 -33.320312 10.128906 -32.609375 L 10.128906 -20.734375 C 10.050781 -19.230469 10.289062 -18.28125 11 -17.492188 C 11.316406 -17.09375 11.792969 -16.859375 12.425781 -16.859375 C 13.769531 -16.859375 14.324219 -17.808594 14.640625 -18.757812 C 14.800781 -19.3125 14.878906 -20.023438 14.878906 -20.734375 Z M 11.160156 1.980469 C 9.496094 2.929688 8.230469 4.117188 8.230469 5.777344 C 8.230469 7.441406 9.734375 8.785156 13.453125 8.785156 C 14.800781 8.785156 16.304688 8.546875 17.492188 8.074219 C 18.679688 7.597656 19.550781 6.886719 19.550781 5.855469 C 19.550781 5.144531 19.46875 4.589844 18.914062 4.035156 C 18.28125 3.480469 17.253906 3.085938 15.273438 2.769531 Z M 11.160156 1.980469 "/></g></g></g><g fill="#000000" fill-opacity="1"><g transform="translate(103.451314, 211.826428)"><g><path d="M 10.050781 -49.386719 L 5.699219 -39.097656 L 1.742188 -39.097656 L 4.511719 -49.386719 L 1.742188 -49.386719 L 1.742188 -58.171875 L 10.050781 -58.171875 Z M 10.050781 -49.386719 "/></g></g></g><g fill="#000000" fill-opacity="1"><g transform="translate(110.890522, 211.826428)"><g><path d="M 15.273438 -32.210938 C 15.273438 -33.242188 15.273438 -34.507812 14.957031 -35.535156 C 14.5625 -36.484375 13.929688 -37.277344 12.664062 -37.277344 C 11.632812 -37.277344 11 -36.484375 10.683594 -35.535156 C 10.289062 -34.585938 10.210938 -33.242188 10.210938 -32.210938 C 10.210938 -30.867188 10.921875 -29.441406 11.949219 -28.175781 C 12.902344 -26.910156 14.167969 -25.644531 15.433594 -24.457031 C 17.09375 -22.792969 19.074219 -20.894531 20.417969 -18.757812 C 21.765625 -16.542969 22.792969 -14.085938 22.792969 -11.238281 C 22.792969 -8.46875 22.160156 -5.539062 20.578125 -3.324219 C 18.914062 -1.027344 16.382812 0.632812 12.585938 0.632812 C 7.757812 0.632812 4.90625 -1.582031 3.324219 -4.273438 C 1.742188 -6.964844 1.425781 -10.289062 1.425781 -12.585938 L 8.863281 -12.585938 C 8.863281 -11.398438 8.945312 -9.734375 9.496094 -8.46875 C 10.050781 -7.125 10.921875 -6.015625 12.585938 -6.015625 C 14.878906 -6.015625 15.355469 -8.707031 15.355469 -11.238281 C 15.355469 -13.851562 12.820312 -16.460938 10.367188 -18.914062 C 8.46875 -20.734375 6.648438 -22.398438 5.222656 -24.535156 C 3.800781 -26.671875 2.769531 -29.046875 2.769531 -32.210938 C 2.769531 -34.746094 3.246094 -37.671875 4.75 -39.96875 C 6.253906 -42.183594 8.707031 -43.847656 12.503906 -43.925781 C 17.175781 -44.003906 19.785156 -42.261719 21.132812 -39.96875 C 22.476562 -37.671875 22.714844 -34.664062 22.714844 -32.210938 Z M 15.273438 -32.210938 "/></g></g></g><g clip-path="url(#528318cab6)"><path fill="#ffffff" d="M 171.46875 150.132812 C 166.011719 143.585938 153.796875 143.683594 149.644531 147.308594 C 150.886719 147.128906 150.773438 147.914062 152.964844 147.777344 C 151.710938 148.71875 149.6875 147.65625 147.871094 148.546875 C 146.457031 149.242188 145.496094 150.441406 144.488281 152.179688 C 144.40625 152.324219 144.328125 152.46875 144.246094 152.609375 C 144.3125 152.59375 144.378906 152.582031 144.441406 152.570312 C 144.714844 152.515625 144.953125 152.476562 145.152344 152.449219 L 145.167969 152.449219 C 146.621094 152.246094 147.652344 152.796875 149.527344 152.171875 C 148.457031 153.128906 147.519531 153.335938 145.949219 153.402344 C 142.527344 153.546875 142.882812 154.328125 141.914062 158.476562 C 141.917969 158.476562 141.917969 158.476562 141.921875 158.476562 C 142.175781 158.367188 142.402344 158.277344 142.589844 158.210938 L 142.605469 158.207031 C 143.984375 157.703125 146.023438 157.847656 147.316406 156.546875 C 146.917969 158.03125 145.574219 158.421875 144.050781 158.816406 C 140.910156 159.636719 141.152344 161.0625 141.515625 164.882812 C 141.578125 164.824219 141.640625 164.769531 141.699219 164.714844 C 141.914062 164.53125 142.105469 164.382812 142.261719 164.261719 C 142.261719 164.261719 142.257812 164.261719 142.261719 164.261719 L 142.273438 164.25 C 143.441406 163.359375 144.796875 163.277344 145.640625 161.648438 C 145.707031 163.179688 144.695312 163.867188 143.359375 164.703125 C 140.792969 166.308594 141.582031 167.515625 142.460938 170.746094 C 142.640625 170.550781 142.796875 170.390625 142.929688 170.257812 C 142.929688 170.253906 142.929688 170.253906 142.929688 170.253906 L 142.941406 170.242188 L 142.945312 170.242188 C 143.976562 169.203125 145.257812 169.007812 145.875 167.28125 C 146.144531 168.792969 145.1875 169.539062 143.976562 170.542969 C 143.636719 170.824219 143.859375 170.730469 143.644531 170.945312 L 143.632812 170.957031 L 143.632812 170.960938 C 142.03125 172.523438 143.386719 175.597656 143.949219 177.578125 C 143.964844 177.554688 144.078125 177.058594 144.09375 177.039062 C 144.09375 177.039062 144.089844 177.039062 144.089844 177.035156 L 144.101562 177.023438 C 144.988281 175.855469 146.660156 174.550781 147.042969 172.757812 C 147.511719 174.21875 146.179688 175.664062 145.113281 176.820312 C 143.089844 179.003906 145.671875 182.558594 146.183594 185.980469 C 146.890625 184.632812 147.71875 181.648438 147.859375 179.820312 C 148.949219 181.527344 147.378906 186.847656 146.0625 188.667969 C 147.699219 189.933594 149.015625 190.589844 149.082031 192.074219 L 149.089844 192.074219 C 148.792969 192.390625 148.613281 192.804688 148.613281 193.25 C 148.613281 194.246094 149.503906 195.0625 150.59375 195.0625 L 167.441406 195.0625 C 168.53125 195.0625 169.417969 194.246094 169.417969 193.25 C 169.417969 192.777344 169.21875 192.34375 168.894531 192.019531 C 168.960938 190.320312 170.253906 189.046875 171.863281 188.3125 C 173.011719 178.417969 160.164062 175.472656 159.238281 167.476562 C 159.609375 168.539062 161.816406 170.332031 163.769531 170.398438 C 167.832031 170.527344 166.550781 174.675781 168.945312 173.796875 C 170.113281 173.601562 171.777344 174.421875 172.582031 174.261719 C 173.121094 174.152344 173.820312 172.285156 174.039062 171.769531 C 175.511719 168.304688 174.808594 168.535156 173.523438 166.816406 C 172.308594 165.191406 172.285156 164.972656 171.339844 162.964844 C 168.457031 156.839844 172.859375 161.800781 167.464844 152.003906 C 168.664062 150.808594 170.519531 149.742188 171.46875 150.132812 M 156.496094 167.035156 C 158.5 175.046875 168.117188 177.859375 168.121094 185.402344 C 168.121094 187.902344 166.378906 188.066406 166.589844 185.171875 C 167.058594 178.71875 157.515625 174.75 156.496094 167.035156 Z M 155.949219 158.335938 C 155.507812 159.316406 155.617188 160.101562 155.554688 161.09375 C 152.113281 163.601562 152.15625 169.050781 154.683594 174.089844 C 151.320312 168.484375 150.394531 163.558594 155.949219 158.335938 Z M 169.210938 160.128906 C 167.667969 160.335938 167.378906 158.640625 164.835938 158.796875 C 165.277344 158.828125 166.097656 159.144531 166.078125 159.523438 C 166.046875 160.101562 166.433594 160.578125 167.375 160.71875 C 168.214844 160.847656 168.796875 160.589844 169.210938 160.128906 Z M 160.835938 150.957031 C 159.996094 148.777344 155.308594 147.289062 154.519531 147.632812 C 157.632812 147.957031 159.148438 150.625 160.835938 150.957031 Z M 155.433594 148.28125 C 155.96875 149.351562 155.902344 151.421875 158.300781 152.359375 C 157.453125 151.8125 156.84375 151.195312 156.582031 150.136719 C 156.28125 148.929688 155.800781 148.496094 155.433594 148.28125 Z M 160.640625 197.128906 L 165.3125 197.128906 C 165.628906 197.128906 165.890625 197.335938 165.890625 197.589844 C 165.890625 197.84375 165.628906 198.050781 165.3125 198.050781 L 160.640625 198.050781 C 160.316406 198.050781 160.058594 197.84375 160.058594 197.589844 C 160.058594 197.335938 160.316406 197.128906 160.640625 197.128906 Z M 165.433594 207.480469 L 171.601562 207.480469 C 172.027344 207.480469 172.367188 207.6875 172.367188 207.941406 C 172.367188 208.195312 172.027344 208.402344 171.601562 208.402344 L 165.433594 208.402344 C 165.011719 208.402344 164.667969 208.195312 164.667969 207.941406 C 164.667969 207.6875 165.011719 207.480469 165.433594 207.480469 Z M 146.902344 204.378906 C 146.710938 204.820312 146.722656 205.160156 146.976562 205.425781 L 170.976562 205.425781 C 171.160156 205.199219 171.238281 204.902344 171.261719 204.515625 C 171.351562 203.105469 167.382812 201.511719 167.382812 197.792969 C 167.382812 196.898438 166.652344 196.164062 165.753906 196.164062 L 152.308594 196.164062 C 151.410156 196.164062 150.679688 196.898438 150.679688 197.792969 C 150.679688 201.664062 146.902344 202.820312 146.902344 204.378906 Z M 147.242188 206.613281 L 170.789062 206.613281 C 173.972656 206.613281 176.574219 208.804688 176.601562 211.488281 L 141.429688 211.488281 C 141.457031 208.804688 144.058594 206.613281 147.242188 206.613281 Z M 147.242188 206.613281 " fill-opacity="1" fill-rule="evenodd"/></g><g clip-path="url(#6673afb099)"><path fill="#9a702b" d="M 169.21875 133.839844 C 169.21875 133.707031 169.355469 133.601562 169.519531 133.601562 L 170.355469 133.601562 L 171.191406 128.757812 L 177.351562 128.757812 L 178.1875 133.601562 L 179.023438 133.601562 C 179.1875 133.601562 179.324219 133.707031 179.324219 133.839844 C 179.324219 133.96875 179.1875 134.074219 179.023438 134.074219 L 169.519531 134.074219 C 169.355469 134.074219 169.21875 133.96875 169.21875 133.839844 Z M 174.332031 143.296875 L 169.214844 143.296875 C 168.25 143.296875 167.382812 142.625 167.191406 141.726562 L 167.191406 140.703125 C 169.097656 140.445312 167.769531 140.691406 167.261719 140.28125 C 167.5 139.363281 168.269531 138.671875 169.25 138.671875 L 179.292969 138.671875 C 180.273438 138.671875 181.042969 139.363281 181.28125 140.28125 C 180.773438 140.691406 179.445312 140.445312 181.351562 140.703125 L 181.351562 141.726562 C 181.160156 142.625 180.289062 143.296875 179.328125 143.296875 Z M 178.613281 134.441406 L 179.023438 137.628906 C 179.089844 138.132812 178.339844 138.503906 177.5 138.503906 L 171.042969 138.503906 C 170.203125 138.503906 169.453125 138.132812 169.519531 137.628906 L 169.929688 134.441406 Z M 171.328125 127.609375 L 177.214844 127.609375 C 178.242188 127.609375 179.003906 127.152344 179.082031 126.535156 L 179.488281 123.375 L 177.609375 123.375 C 177.578125 123.757812 177.257812 124.058594 176.871094 124.058594 C 176.484375 124.058594 176.164062 123.757812 176.132812 123.375 L 175.007812 123.375 C 174.980469 123.757812 174.660156 124.058594 174.269531 124.058594 C 173.882812 124.058594 173.5625 123.757812 173.535156 123.375 L 172.410156 123.375 C 172.378906 123.757812 172.058594 124.058594 171.671875 124.058594 C 171.285156 124.058594 170.960938 123.757812 170.933594 123.375 L 169.050781 123.375 L 169.460938 126.535156 C 169.539062 127.152344 170.300781 127.609375 171.328125 127.609375 Z M 170.613281 128.148438 C 170.613281 127.980469 170.75 127.84375 170.917969 127.84375 L 177.625 127.84375 C 177.792969 127.84375 177.929688 127.980469 177.929688 128.148438 C 177.929688 128.316406 177.792969 128.453125 177.625 128.453125 L 170.917969 128.453125 C 170.75 128.453125 170.613281 128.316406 170.613281 128.148438 Z M 214.757812 112.429688 L 215.386719 112.429688 C 215.679688 112.429688 215.917969 112.667969 215.917969 112.960938 C 215.917969 113.25 215.679688 113.488281 215.386719 113.488281 L 214.757812 113.488281 C 214.46875 113.488281 214.230469 113.25 214.230469 112.960938 C 214.230469 112.667969 214.46875 112.429688 214.757812 112.429688 Z M 215.074219 113.621094 C 216.84375 113.621094 218.28125 115.960938 218.28125 118.847656 C 218.28125 120.644531 217.726562 122.226562 216.878906 123.167969 L 217.636719 123.167969 C 218.191406 123.167969 218.683594 123.398438 218.644531 123.675781 L 218.628906 123.796875 C 218.59375 124.074219 218.175781 124.304688 217.621094 124.304688 L 212.507812 124.304688 C 211.953125 124.304688 211.460938 124.074219 211.5 123.796875 L 211.515625 123.675781 C 211.550781 123.398438 211.96875 123.167969 212.523438 123.167969 L 213.265625 123.167969 C 212.417969 122.226562 211.863281 120.644531 211.863281 118.847656 C 211.863281 117.511719 212.171875 116.292969 212.679688 115.367188 L 214.175781 118.4375 C 214.246094 118.582031 214.425781 118.644531 214.574219 118.574219 C 214.722656 118.5 214.78125 118.320312 214.710938 118.175781 L 213.054688 114.78125 C 213.605469 114.054688 214.308594 113.621094 215.074219 113.621094 Z M 215.128906 143.144531 L 210.113281 143.144531 C 209.167969 143.144531 208.316406 142.484375 208.125 141.605469 L 208.125 140.605469 L 208.128906 140.597656 C 209.996094 140.347656 208.695312 140.589844 208.195312 140.1875 C 208.433594 139.285156 209.1875 138.605469 210.148438 138.605469 L 220 138.605469 C 220.957031 138.605469 221.710938 139.285156 221.949219 140.1875 C 221.449219 140.589844 220.148438 140.347656 222.015625 140.597656 L 222.019531 140.605469 L 222.019531 141.605469 C 221.828125 142.484375 220.976562 143.144531 220.03125 143.144531 Z M 217.046875 124.4375 L 217.019531 124.453125 C 218.113281 124.664062 218.84375 125.019531 218.84375 125.472656 C 218.84375 125.925781 217.972656 126.355469 216.707031 126.546875 C 217.039062 129.15625 217.136719 133.488281 217.984375 135.746094 L 218.265625 136.5 L 218.300781 136.5 C 218.449219 136.5 218.570312 136.621094 218.570312 136.773438 C 218.570312 136.867188 218.523438 136.949219 218.453125 136.996094 L 218.878906 138.132812 L 211.265625 138.132812 L 211.691406 136.996094 C 211.621094 136.949219 211.574219 136.867188 211.574219 136.773438 C 211.574219 136.621094 211.695312 136.5 211.847656 136.5 L 211.878906 136.5 L 212.160156 135.746094 C 213.132812 133.15625 213.023438 129.789062 213.4375 126.546875 C 212.171875 126.355469 211.300781 125.925781 211.300781 125.472656 C 211.300781 125.019531 212.03125 124.664062 213.125 124.453125 L 213.097656 124.4375 Z M 194.835938 127.226562 C 194.835938 127.226562 195.5625 127.953125 193.117188 129.5 C 190.671875 131.042969 190.671875 131.25 190.136719 132.242188 C 189.601562 133.238281 189.535156 133.914062 189.535156 133.914062 C 189.535156 133.914062 190.199219 132.890625 191.003906 132.714844 C 191.808594 132.542969 191.808594 132.542969 191.808594 132.542969 C 191.808594 132.542969 190.207031 133.882812 190.089844 134.253906 C 189.96875 134.625 189.96875 134.664062 189.96875 134.664062 C 189.96875 134.664062 190.222656 134.464844 190.871094 134.441406 C 191.515625 134.417969 191.964844 134.578125 191.964844 134.578125 C 191.964844 134.578125 191.003906 135.058594 191.351562 135.261719 C 191.699219 135.46875 192.3125 136.097656 191.761719 136.429688 C 191.207031 136.761719 190.625 137.09375 190.355469 137.804688 C 190.253906 138.078125 190.195312 138.347656 190.160156 138.574219 C 190.363281 138.496094 190.585938 138.453125 190.816406 138.453125 L 200.210938 138.453125 C 200.457031 138.453125 200.691406 138.503906 200.90625 138.589844 C 201.027344 138.207031 201.09375 137.734375 200.796875 137.457031 C 200.246094 136.933594 199.285156 136.667969 199.457031 135.972656 C 199.632812 135.277344 200.972656 135.246094 200.972656 135.246094 L 199.488281 134.523438 C 199.488281 134.523438 201.429688 132.660156 201.304688 130.800781 C 201.175781 128.9375 201.625 123.40625 199.835938 123.75 C 199.492188 123.816406 197.796875 118.023438 196.714844 119.726562 C 195.605469 121.46875 194.96875 119.007812 195.261719 121.351562 C 195.261719 121.351562 194.316406 121.589844 193.496094 122.1875 C 192.675781 122.789062 193.210938 123.371094 192.011719 124.222656 C 190.8125 125.074219 190.308594 124.835938 190.121094 125.46875 C 189.929688 126.097656 190.59375 126.824219 190.59375 126.824219 L 191.152344 126.707031 L 190.925781 127.023438 C 190.925781 127.023438 191.28125 127.007812 191.304688 127.101562 C 191.328125 127.195312 191.183594 127.34375 191.476562 127.433594 C 191.769531 127.519531 192.40625 127.804688 192.558594 127.433594 C 192.707031 127.0625 192.855469 126.941406 193.09375 126.925781 C 193.332031 126.910156 194.835938 127.226562 194.835938 127.226562 Z M 195.476562 143.285156 L 190.695312 143.285156 C 189.792969 143.285156 188.980469 142.65625 188.800781 141.820312 L 188.800781 140.859375 C 190.582031 140.621094 189.34375 140.847656 188.867188 140.46875 C 189.089844 139.609375 189.8125 138.960938 190.726562 138.960938 L 200.121094 138.960938 C 201.035156 138.960938 201.753906 139.609375 201.980469 140.46875 C 201.503906 140.847656 200.261719 140.621094 202.046875 140.859375 L 202.046875 141.820312 C 201.867188 142.65625 201.050781 143.285156 200.152344 143.285156 Z M 251.988281 125.105469 L 258.351562 125.105469 C 258.5625 125.105469 258.734375 125.277344 258.734375 125.488281 L 258.734375 125.816406 C 258.734375 126.027344 258.5625 126.199219 258.351562 126.199219 L 251.988281 126.199219 C 251.777344 126.199219 251.605469 126.027344 251.605469 125.816406 L 251.605469 125.488281 C 251.605469 125.277344 251.777344 125.105469 251.988281 125.105469 Z M 251.230469 124.359375 L 259.105469 124.359375 C 259.210938 124.359375 259.296875 124.445312 259.296875 124.550781 L 259.296875 124.714844 C 259.296875 124.820312 259.210938 124.90625 259.105469 124.90625 L 251.230469 124.90625 C 251.125 124.90625 251.039062 124.820312 251.039062 124.714844 L 251.039062 124.550781 C 251.039062 124.445312 251.125 124.359375 251.230469 124.359375 Z M 250.203125 124.113281 C 250.203125 124.113281 250.929688 124.148438 251.203125 123.546875 C 251.476562 122.945312 251.476562 122.855469 251.476562 122.855469 L 258.859375 122.855469 C 258.859375 122.855469 258.859375 122.945312 259.132812 123.546875 C 259.40625 124.148438 260.136719 124.113281 260.136719 124.113281 L 255.167969 124.109375 Z M 251.230469 122.097656 L 259.105469 122.097656 C 259.210938 122.097656 259.296875 122.183594 259.296875 122.289062 L 259.296875 122.453125 C 259.296875 122.558594 259.210938 122.644531 259.105469 122.644531 L 251.230469 122.644531 C 251.125 122.644531 251.039062 122.558594 251.039062 122.453125 L 251.039062 122.289062 C 251.039062 122.183594 251.125 122.097656 251.230469 122.097656 Z M 251.988281 116.261719 L 258.351562 116.261719 C 258.5625 116.261719 258.734375 116.433594 258.734375 116.644531 L 258.734375 116.972656 C 258.734375 117.050781 258.710938 117.121094 258.671875 117.179688 C 259.804688 117.425781 260.457031 117.851562 260.457031 117.851562 C 260.457031 117.851562 258.921875 119.929688 258.417969 120.878906 C 257.914062 121.824219 257.847656 121.917969 257.847656 121.917969 L 252.488281 121.917969 C 252.488281 121.917969 252.425781 121.824219 251.921875 120.878906 C 251.417969 119.929688 249.882812 117.851562 249.882812 117.851562 C 249.882812 117.851562 250.53125 117.425781 251.667969 117.179688 C 251.628906 117.121094 251.605469 117.050781 251.605469 116.972656 L 251.605469 116.644531 C 251.605469 116.433594 251.777344 116.261719 251.988281 116.261719 Z M 257.734375 126.292969 C 258.03125 128.996094 258.082031 133.109375 259.023438 135.617188 L 259.214844 136.132812 C 259.511719 136.304688 259.714844 136.625 259.714844 136.992188 C 259.714844 137.101562 259.695312 137.210938 259.660156 137.316406 L 259.898438 137.949219 L 250.441406 137.949219 L 250.679688 137.316406 C 250.644531 137.210938 250.625 137.101562 250.625 136.992188 C 250.625 136.625 250.824219 136.304688 251.121094 136.132812 L 251.316406 135.617188 C 252.34375 132.878906 252.285156 129.222656 252.605469 126.292969 Z M 255.929688 114.351562 C 257.191406 114.539062 258.160156 115.1875 258.351562 115.988281 L 251.984375 115.988281 C 252.175781 115.1875 253.148438 114.539062 254.410156 114.351562 C 254.375 114.261719 254.359375 114.167969 254.359375 114.066406 C 254.359375 113.617188 254.722656 113.253906 255.167969 113.253906 C 255.617188 113.253906 255.980469 113.617188 255.980469 114.066406 C 255.980469 114.167969 255.960938 114.261719 255.929688 114.351562 Z M 255.234375 143.285156 L 249.703125 143.285156 C 248.664062 143.285156 247.722656 142.558594 247.515625 141.589844 L 247.515625 140.480469 C 249.574219 140.203125 248.140625 140.46875 247.589844 140.027344 C 247.851562 139.035156 248.683594 138.285156 249.742188 138.285156 L 260.597656 138.285156 C 261.65625 138.285156 262.488281 139.035156 262.746094 140.027344 C 262.199219 140.46875 260.761719 140.203125 262.824219 140.480469 L 262.824219 141.589844 C 262.617188 142.558594 261.675781 143.285156 260.632812 143.285156 Z M 232.234375 120.722656 L 239.535156 120.722656 C 239.773438 120.722656 239.972656 120.9375 239.972656 121.203125 L 239.972656 121.613281 C 239.972656 121.875 239.773438 122.09375 239.535156 122.09375 L 232.234375 122.09375 C 231.992188 122.09375 231.796875 121.875 231.796875 121.613281 L 231.796875 121.203125 C 231.796875 120.9375 231.992188 120.722656 232.234375 120.722656 Z M 231.367188 119.789062 L 240.402344 119.789062 C 240.523438 119.789062 240.621094 119.894531 240.621094 120.027344 L 240.621094 120.234375 C 240.621094 120.363281 240.523438 120.472656 240.402344 120.472656 L 231.367188 120.472656 C 231.246094 120.472656 231.148438 120.363281 231.148438 120.234375 L 231.148438 120.027344 C 231.148438 119.894531 231.246094 119.789062 231.367188 119.789062 Z M 230.183594 119.480469 C 230.183594 119.480469 231.019531 119.527344 231.335938 118.773438 C 231.648438 118.019531 231.648438 117.90625 231.648438 117.90625 L 240.117188 117.90625 C 240.117188 117.90625 240.117188 118.019531 240.433594 118.773438 C 240.746094 119.527344 241.582031 119.480469 241.582031 119.480469 L 235.882812 119.476562 Z M 231.367188 116.960938 L 240.402344 116.960938 C 240.523438 116.960938 240.621094 117.070312 240.621094 117.199219 L 240.621094 117.40625 C 240.621094 117.539062 240.523438 117.644531 240.402344 117.644531 L 231.367188 117.644531 C 231.246094 117.644531 231.148438 117.539062 231.148438 117.40625 L 231.148438 117.199219 C 231.148438 117.070312 231.246094 116.960938 231.367188 116.960938 Z M 232.234375 109.660156 L 239.535156 109.660156 C 239.773438 109.660156 239.972656 109.875 239.972656 110.136719 L 239.972656 110.546875 C 239.972656 110.644531 239.945312 110.734375 239.902344 110.808594 C 241.203125 111.113281 241.949219 111.648438 241.949219 111.648438 C 241.949219 111.648438 240.1875 114.246094 239.609375 115.433594 C 239.03125 116.617188 238.957031 116.734375 238.957031 116.734375 L 232.808594 116.734375 C 232.808594 116.734375 232.738281 116.617188 232.15625 115.433594 C 231.578125 114.246094 229.820312 111.648438 229.820312 111.648438 C 229.820312 111.648438 230.566406 111.113281 231.867188 110.808594 C 231.820312 110.734375 231.796875 110.644531 231.796875 110.546875 L 231.796875 110.136719 C 231.796875 109.875 231.992188 109.660156 232.234375 109.660156 Z M 234.796875 104.238281 L 236.972656 104.238281 L 236.972656 105.605469 L 239.019531 105.605469 L 239.019531 107.976562 L 236.972656 107.976562 L 236.972656 109.34375 L 234.796875 109.34375 L 234.796875 107.976562 L 232.746094 107.976562 L 232.746094 105.605469 L 234.796875 105.605469 Z M 238.824219 122.207031 C 239.164062 125.589844 239.226562 130.734375 240.304688 133.871094 L 240.527344 134.515625 C 240.867188 134.726562 241.097656 135.128906 241.097656 135.589844 C 241.097656 135.730469 241.074219 135.867188 241.035156 135.996094 L 241.308594 136.789062 L 230.460938 136.789062 L 230.734375 135.996094 C 230.691406 135.867188 230.671875 135.730469 230.671875 135.589844 C 230.671875 135.128906 230.898438 134.726562 231.242188 134.515625 L 231.460938 133.871094 C 232.640625 130.445312 232.574219 125.871094 232.941406 122.207031 Z M 235.957031 143.574219 L 229.613281 143.574219 C 228.417969 143.574219 227.339844 142.664062 227.101562 141.453125 L 227.101562 140.066406 C 229.464844 139.71875 227.820312 140.050781 227.191406 139.5 C 227.488281 138.257812 228.441406 137.320312 229.65625 137.320312 L 242.113281 137.320312 C 243.324219 137.320312 244.277344 138.257812 244.578125 139.5 C 243.945312 140.050781 242.300781 139.71875 244.664062 140.066406 L 244.664062 141.453125 C 244.425781 142.664062 243.347656 143.574219 242.152344 143.574219 Z M 274.742188 112.429688 L 275.375 112.429688 C 275.664062 112.429688 275.902344 112.667969 275.902344 112.960938 C 275.902344 113.25 275.664062 113.488281 275.375 113.488281 L 274.742188 113.488281 C 274.453125 113.488281 274.214844 113.25 274.214844 112.960938 C 274.214844 112.667969 274.453125 112.429688 274.742188 112.429688 Z M 275.058594 113.621094 C 276.832031 113.621094 278.269531 115.960938 278.269531 118.847656 C 278.269531 120.644531 277.710938 122.226562 276.867188 123.167969 L 277.625 123.167969 C 278.179688 123.167969 278.667969 123.398438 278.632812 123.675781 L 278.617188 123.796875 C 278.578125 124.074219 278.164062 124.304688 277.609375 124.304688 L 272.492188 124.304688 C 271.9375 124.304688 271.449219 124.074219 271.484375 123.796875 L 271.5 123.675781 C 271.539062 123.398438 271.953125 123.167969 272.507812 123.167969 L 273.25 123.167969 C 272.40625 122.226562 271.847656 120.644531 271.847656 118.847656 C 271.847656 117.511719 272.15625 116.292969 272.664062 115.367188 L 274.160156 118.4375 C 274.234375 118.582031 274.414062 118.644531 274.558594 118.574219 C 274.707031 118.5 274.769531 118.320312 274.695312 118.175781 L 273.042969 114.78125 C 273.59375 114.054688 274.292969 113.621094 275.058594 113.621094 Z M 275.117188 143.144531 L 270.101562 143.144531 C 269.15625 143.144531 268.300781 142.484375 268.113281 141.605469 L 268.113281 140.597656 C 269.984375 140.347656 268.679688 140.589844 268.183594 140.1875 C 268.417969 139.285156 269.171875 138.605469 270.132812 138.605469 L 279.984375 138.605469 C 280.945312 138.605469 281.699219 139.285156 281.933594 140.1875 C 281.4375 140.589844 280.132812 140.347656 282.003906 140.597656 L 282.003906 141.605469 C 281.816406 142.484375 280.960938 143.144531 280.015625 143.144531 Z M 277.03125 124.4375 L 277.007812 124.453125 C 278.097656 124.664062 278.832031 125.019531 278.832031 125.472656 C 278.832031 125.925781 277.957031 126.355469 276.695312 126.546875 C 277.023438 129.15625 277.125 133.488281 277.96875 135.746094 L 278.253906 136.5 L 278.285156 136.5 C 278.433594 136.5 278.558594 136.621094 278.558594 136.773438 C 278.558594 136.867188 278.511719 136.949219 278.4375 136.996094 L 278.863281 138.132812 L 271.253906 138.132812 L 271.679688 136.996094 C 271.605469 136.949219 271.558594 136.867188 271.558594 136.773438 C 271.558594 136.621094 271.683594 136.5 271.832031 136.5 L 271.863281 136.5 L 272.148438 135.746094 C 273.117188 133.15625 273.011719 129.789062 273.421875 126.546875 C 272.160156 126.355469 271.285156 125.925781 271.285156 125.472656 C 271.285156 125.019531 272.019531 124.664062 273.113281 124.453125 L 273.085938 124.4375 L 277.035156 124.4375 Z M 295.359375 127.226562 C 295.359375 127.226562 296.085938 127.953125 293.640625 129.5 C 291.195312 131.042969 291.195312 131.25 290.660156 132.242188 C 290.121094 133.238281 290.058594 133.914062 290.058594 133.914062 C 290.058594 133.914062 290.722656 132.890625 291.527344 132.714844 C 292.332031 132.542969 292.332031 132.542969 292.332031 132.542969 C 292.332031 132.542969 290.730469 133.882812 290.613281 134.253906 C 290.492188 134.625 290.492188 134.664062 290.492188 134.664062 C 290.492188 134.664062 290.746094 134.464844 291.394531 134.441406 C 292.039062 134.417969 292.488281 134.578125 292.488281 134.578125 C 292.488281 134.578125 291.527344 135.058594 291.875 135.261719 C 292.222656 135.46875 292.835938 136.097656 292.285156 136.429688 C 291.730469 136.761719 291.148438 137.09375 290.878906 137.804688 C 290.777344 138.078125 290.71875 138.347656 290.683594 138.574219 C 290.886719 138.496094 291.109375 138.453125 291.339844 138.453125 L 300.734375 138.453125 C 300.980469 138.453125 301.214844 138.503906 301.429688 138.589844 C 301.550781 138.207031 301.617188 137.734375 301.320312 137.457031 C 300.769531 136.933594 299.808594 136.667969 299.980469 135.972656 C 300.15625 135.277344 301.496094 135.246094 301.496094 135.246094 L 300.011719 134.523438 C 300.011719 134.523438 301.953125 132.660156 301.828125 130.800781 C 301.699219 128.9375 302.148438 123.40625 300.359375 123.75 C 300.015625 123.816406 298.320312 118.023438 297.238281 119.726562 C 296.128906 121.46875 295.492188 119.007812 295.785156 121.351562 C 295.785156 121.351562 294.839844 121.589844 294.019531 122.1875 C 293.199219 122.789062 293.734375 123.371094 292.535156 124.222656 C 291.335938 125.074219 290.832031 124.835938 290.644531 125.46875 C 290.453125 126.097656 291.117188 126.824219 291.117188 126.824219 L 291.675781 126.707031 L 291.449219 127.023438 C 291.449219 127.023438 291.804688 127.007812 291.828125 127.101562 C 291.851562 127.195312 291.707031 127.34375 292 127.433594 C 292.292969 127.519531 292.929688 127.804688 293.082031 127.433594 C 293.230469 127.0625 293.378906 126.941406 293.617188 126.925781 C 293.855469 126.910156 295.359375 127.226562 295.359375 127.226562 Z M 296 143.285156 L 291.21875 143.285156 C 290.316406 143.285156 289.503906 142.65625 289.324219 141.820312 L 289.324219 140.859375 C 291.105469 140.621094 289.863281 140.847656 289.390625 140.46875 C 289.613281 139.609375 290.335938 138.960938 291.25 138.960938 L 300.644531 138.960938 C 301.558594 138.960938 302.277344 139.609375 302.503906 140.46875 C 302.027344 140.847656 300.785156 140.621094 302.570312 140.859375 L 302.570312 141.820312 C 302.390625 142.65625 301.574219 143.285156 300.675781 143.285156 Z M 310.917969 133.839844 C 310.917969 133.707031 311.054688 133.601562 311.222656 133.601562 L 312.058594 133.601562 L 312.890625 128.757812 L 319.050781 128.757812 L 319.886719 133.601562 L 320.722656 133.601562 C 320.890625 133.601562 321.027344 133.707031 321.027344 133.839844 C 321.027344 133.96875 320.890625 134.074219 320.722656 134.074219 L 311.222656 134.074219 C 311.054688 134.074219 310.917969 133.96875 310.917969 133.839844 Z M 316.03125 143.296875 L 310.917969 143.296875 C 309.953125 143.296875 309.082031 142.625 308.890625 141.726562 L 308.890625 140.703125 C 310.796875 140.445312 309.46875 140.691406 308.960938 140.28125 C 309.203125 139.363281 309.972656 138.671875 310.949219 138.671875 L 320.996094 138.671875 C 321.972656 138.671875 322.742188 139.363281 322.984375 140.28125 C 322.476562 140.691406 321.148438 140.445312 323.054688 140.703125 L 323.054688 141.726562 C 322.859375 142.625 321.992188 143.296875 321.027344 143.296875 Z M 320.316406 134.441406 L 320.726562 137.628906 C 320.789062 138.132812 320.039062 138.503906 319.199219 138.503906 L 312.746094 138.503906 C 311.90625 138.503906 311.152344 138.132812 311.21875 137.628906 L 311.628906 134.441406 Z M 313.027344 127.609375 L 318.917969 127.609375 C 319.945312 127.609375 320.703125 127.152344 320.785156 126.535156 L 321.191406 123.375 L 319.308594 123.375 C 319.28125 123.757812 318.960938 124.058594 318.574219 124.058594 C 318.183594 124.058594 317.863281 123.757812 317.835938 123.375 L 316.710938 123.375 C 316.679688 123.757812 316.359375 124.058594 315.972656 124.058594 C 315.585938 124.058594 315.265625 123.757812 315.234375 123.375 L 314.109375 123.375 C 314.078125 123.757812 313.757812 124.058594 313.371094 124.058594 C 312.984375 124.058594 312.664062 123.757812 312.632812 123.375 L 310.753906 123.375 L 311.160156 126.535156 C 311.238281 127.152344 312 127.609375 313.027344 127.609375 Z M 312.3125 128.148438 C 312.3125 127.980469 312.449219 127.84375 312.617188 127.84375 L 319.328125 127.84375 C 319.496094 127.84375 319.632812 127.980469 319.632812 128.148438 C 319.632812 128.316406 319.496094 128.453125 319.328125 128.453125 L 312.617188 128.453125 C 312.449219 128.453125 312.3125 128.316406 312.3125 128.148438 Z M 312.3125 128.148438 " fill-opacity="1" fill-rule="evenodd"/></g><g clip-path="url(#a8e469bb2e)"><path fill="#9a702b" d="M 33.132812 125.265625 C 32.859375 127.25 32.160156 128.953125 31.007812 130.367188 C 28.84375 129.703125 26.6875 128.082031 24.769531 125.5625 C 25.730469 125.238281 26.421875 124.328125 26.421875 123.257812 C 26.421875 121.914062 25.332031 120.824219 23.988281 120.824219 C 22.644531 120.824219 21.554688 121.914062 21.554688 123.257812 C 21.554688 124.476562 22.457031 125.488281 23.628906 125.664062 L 26.6875 139.4375 C 25.984375 139.664062 25.472656 140.324219 25.472656 141.101562 C 25.472656 141.914062 26.027344 142.597656 26.777344 142.792969 L 26.777344 146.625 C 26.027344 146.820312 25.472656 147.503906 25.472656 148.316406 C 25.472656 149.28125 26.257812 150.066406 27.222656 150.066406 L 28.863281 150.066406 C 29.109375 150.066406 29.304688 149.867188 29.304688 149.621094 C 29.304688 149.378906 29.109375 149.179688 28.863281 149.179688 L 27.222656 149.179688 C 26.746094 149.179688 26.359375 148.792969 26.359375 148.316406 C 26.359375 147.839844 26.746094 147.453125 27.222656 147.453125 L 59.304688 147.453125 C 59.78125 147.453125 60.167969 147.839844 60.167969 148.316406 C 60.167969 148.792969 59.78125 149.179688 59.304688 149.179688 C 59.304688 149.179688 31.609375 149.179688 31.609375 149.179688 C 31.367188 149.179688 31.167969 149.378906 31.167969 149.621094 C 31.167969 149.867188 31.367188 150.066406 31.609375 150.066406 L 59.304688 150.066406 C 60.269531 150.066406 61.054688 149.28125 61.054688 148.316406 C 61.054688 147.503906 60.5 146.820312 59.75 146.625 L 59.75 142.792969 C 60.5 142.597656 61.054688 141.914062 61.054688 141.101562 C 61.054688 140.324219 60.542969 139.664062 59.839844 139.4375 L 61.003906 134.203125 C 61.054688 133.964844 60.90625 133.726562 60.667969 133.675781 C 60.429688 133.621094 60.191406 133.773438 60.136719 134.011719 L 58.949219 139.355469 L 27.578125 139.355469 L 24.847656 127.0625 C 26.777344 129.296875 28.90625 130.710938 31.023438 131.292969 C 31.039062 131.296875 31.054688 131.300781 31.070312 131.304688 C 31.574219 131.441406 32.074219 131.527344 32.570312 131.570312 C 35.679688 131.828125 38.691406 130.277344 40.949219 126.78125 C 41.082031 126.574219 41.023438 126.300781 40.816406 126.167969 C 40.613281 126.035156 40.335938 126.09375 40.203125 126.300781 C 39.714844 127.058594 39.1875 127.71875 38.628906 128.28125 C 36.769531 127.578125 35.34375 126.554688 34.371094 125.203125 C 35.351562 124.886719 36.058594 123.96875 36.058594 122.882812 C 36.058594 121.542969 34.96875 120.453125 33.625 120.453125 C 32.285156 120.453125 31.195312 121.542969 31.195312 122.882812 C 31.195312 124.058594 32.027344 125.039062 33.132812 125.265625 Z M 59.296875 140.242188 L 27.230469 140.242188 C 27.226562 140.242188 27.21875 140.242188 27.214844 140.242188 C 26.742188 140.242188 26.359375 140.628906 26.359375 141.101562 C 26.359375 141.578125 26.746094 141.964844 27.222656 141.964844 L 52.246094 141.964844 C 52.492188 141.964844 52.691406 142.164062 52.691406 142.410156 C 52.691406 142.652344 52.492188 142.851562 52.246094 142.851562 L 27.664062 142.851562 L 27.664062 146.566406 L 58.863281 146.566406 L 58.863281 142.851562 L 54.550781 142.851562 C 54.304688 142.851562 54.109375 142.652344 54.109375 142.410156 C 54.109375 142.164062 54.304688 141.964844 54.550781 141.964844 L 59.304688 141.964844 C 59.78125 141.964844 60.167969 141.578125 60.167969 141.101562 C 60.167969 140.628906 59.785156 140.242188 59.3125 140.242188 C 59.308594 140.242188 59.304688 140.242188 59.296875 140.242188 Z M 43.511719 129.480469 C 43.359375 129.382812 43.167969 129.382812 43.019531 129.480469 L 40.21875 131.34375 C 40.09375 131.429688 40.019531 131.566406 40.019531 131.714844 L 40.019531 135.445312 C 40.019531 135.59375 40.09375 135.730469 40.21875 135.8125 L 43.019531 137.679688 C 43.167969 137.777344 43.359375 137.777344 43.511719 137.679688 L 46.308594 135.8125 C 46.433594 135.730469 46.507812 135.59375 46.507812 135.445312 L 46.507812 131.714844 C 46.507812 131.566406 46.433594 131.429688 46.308594 131.34375 Z M 43.265625 130.382812 L 45.621094 131.953125 C 45.621094 131.953125 45.621094 135.207031 45.621094 135.207031 C 45.621094 135.207031 43.265625 136.777344 43.265625 136.777344 C 43.265625 136.777344 40.90625 135.207031 40.90625 135.207031 C 40.90625 135.207031 40.90625 131.953125 40.90625 131.953125 Z M 42.710938 120.28125 C 42.316406 121.804688 41.835938 123.160156 41.277344 124.347656 C 41.175781 124.570312 41.269531 124.832031 41.492188 124.9375 C 41.710938 125.042969 41.976562 124.945312 42.078125 124.722656 C 42.519531 123.78125 42.917969 122.738281 43.265625 121.59375 C 44.273438 124.9375 45.730469 127.414062 47.4375 129.066406 C 47.464844 129.101562 47.492188 129.128906 47.527344 129.152344 C 48.765625 130.328125 50.136719 131.070312 51.558594 131.398438 C 52.816406 131.6875 54.125 131.65625 55.4375 131.308594 C 55.464844 131.304688 55.496094 131.296875 55.523438 131.285156 C 57.640625 130.699219 59.757812 129.289062 61.683594 127.0625 C 61.683594 127.0625 60.550781 132.148438 60.550781 132.148438 C 60.5 132.386719 60.648438 132.625 60.886719 132.679688 C 61.125 132.730469 61.363281 132.582031 61.417969 132.34375 L 62.902344 125.664062 C 64.070312 125.488281 64.972656 124.476562 64.972656 123.257812 C 64.972656 121.914062 63.882812 120.824219 62.539062 120.824219 C 61.195312 120.824219 60.105469 121.914062 60.105469 123.257812 C 60.105469 124.328125 60.796875 125.238281 61.757812 125.5625 C 59.84375 128.082031 57.683594 129.707031 55.519531 130.367188 C 54.371094 128.953125 53.667969 127.25 53.394531 125.265625 C 54.5 125.039062 55.335938 124.058594 55.335938 122.882812 C 55.335938 121.542969 54.246094 120.453125 52.902344 120.453125 C 51.558594 120.453125 50.46875 121.542969 50.46875 122.882812 C 50.46875 123.96875 51.179688 124.886719 52.160156 125.203125 C 51.183594 126.558594 49.753906 127.582031 47.890625 128.285156 L 47.886719 128.277344 C 47.445312 127.828125 47.042969 127.34375 46.675781 126.828125 C 46.324219 126.335938 46.007812 125.820312 45.71875 125.289062 C 45.363281 124.628906 45.050781 123.945312 44.773438 123.246094 C 44.488281 122.53125 44.246094 121.804688 44.03125 121.066406 C 43.957031 120.816406 43.890625 120.566406 43.824219 120.3125 L 43.816406 120.28125 C 44.894531 120.03125 45.695312 119.0625 45.695312 117.910156 C 45.695312 116.566406 44.605469 115.476562 43.265625 115.476562 C 41.921875 115.476562 40.832031 116.566406 40.832031 117.910156 C 40.832031 119.0625 41.636719 120.03125 42.710938 120.28125 Z M 54.574219 130.597656 C 53.601562 129.292969 52.953125 127.777344 52.625 126.050781 C 51.648438 127.28125 50.3125 128.246094 48.621094 128.949219 C 49.597656 129.753906 50.65625 130.28125 51.757812 130.535156 C 52.675781 130.75 53.625 130.765625 54.574219 130.597656 Z M 37.902344 128.945312 C 36.214844 128.242188 34.878906 127.277344 33.902344 126.050781 C 33.578125 127.777344 32.929688 129.292969 31.953125 130.597656 C 32.183594 130.636719 32.414062 130.667969 32.644531 130.6875 C 34.5 130.839844 36.304688 130.261719 37.902344 128.945312 Z M 62.542969 124.804688 C 63.394531 124.800781 64.085938 124.109375 64.085938 123.257812 C 64.085938 122.40625 63.394531 121.710938 62.539062 121.710938 C 61.6875 121.710938 60.992188 122.40625 60.992188 123.257812 C 60.992188 124.109375 61.683594 124.800781 62.535156 124.804688 L 62.539062 124.804688 C 62.539062 124.804688 62.539062 124.804688 62.542969 124.804688 Z M 23.992188 124.804688 C 24.84375 124.800781 25.535156 124.109375 25.535156 123.257812 C 25.535156 122.40625 24.84375 121.710938 23.988281 121.710938 C 23.136719 121.710938 22.441406 122.40625 22.441406 123.257812 C 22.441406 124.109375 23.132812 124.800781 23.984375 124.804688 C 23.988281 124.804688 23.988281 124.804688 23.992188 124.804688 Z M 33.628906 124.433594 C 34.484375 124.429688 35.171875 123.738281 35.171875 122.882812 C 35.171875 122.03125 34.480469 121.339844 33.625 121.339844 C 32.773438 121.339844 32.078125 122.03125 32.078125 122.882812 C 32.078125 123.738281 32.769531 124.429688 33.621094 124.433594 C 33.625 124.433594 33.628906 124.433594 33.628906 124.433594 Z M 52.90625 124.433594 C 53.757812 124.429688 54.449219 123.738281 54.449219 122.882812 C 54.449219 122.03125 53.753906 121.339844 52.902344 121.339844 C 52.046875 121.339844 51.355469 122.03125 51.355469 122.882812 C 51.355469 123.738281 52.046875 124.429688 52.898438 124.433594 C 52.902344 124.433594 52.902344 124.433594 52.90625 124.433594 Z M 43.273438 119.457031 C 44.121094 119.453125 44.8125 118.761719 44.8125 117.910156 C 44.8125 117.058594 44.117188 116.363281 43.265625 116.363281 C 42.410156 116.363281 41.71875 117.058594 41.71875 117.910156 C 41.71875 118.761719 42.40625 119.453125 43.257812 119.457031 C 43.257812 119.457031 43.261719 119.457031 43.265625 119.457031 C 43.265625 119.457031 43.269531 119.457031 43.273438 119.457031 Z M 43.273438 119.457031 " fill-opacity="1" fill-rule="evenodd"/></g><g fill="#ffffff" fill-opacity="1"><g transform="translate(176.611721, 209.184247)"><g><path d="M 11.113281 0 L 3.152344 0 L 3.152344 -43.109375 L 11.113281 -43.109375 L 11.113281 -39.484375 C 11.269531 -39.5625 11.585938 -39.878906 12.058594 -40.351562 C 12.925781 -41.21875 14.105469 -42.402344 15.527344 -43.1875 C 16.234375 -43.582031 16.867188 -43.742188 17.574219 -43.742188 C 19.703125 -43.742188 21.199219 -42.480469 22.144531 -40.902344 C 23.09375 -39.25 23.566406 -37.121094 23.566406 -35.308594 L 23.566406 0 L 15.605469 0 L 15.605469 -34.125 C 15.605469 -35.78125 14.660156 -36.015625 13.714844 -36.015625 C 12.847656 -36.015625 12.375 -35.542969 11.820312 -34.992188 C 11.585938 -34.675781 11.347656 -34.363281 11.113281 -33.96875 Z M 11.113281 0 "/></g></g></g><g fill="#ffffff" fill-opacity="1"><g transform="translate(198.676764, 209.184247)"><g><path d="M 3.152344 -57.925781 L 11.113281 -57.925781 L 11.113281 -49.964844 L 3.152344 -49.964844 Z M 3.152344 0 L 3.152344 -43.109375 L 11.113281 -43.109375 L 11.113281 0 Z M 3.152344 0 "/></g></g></g><g fill="#ffffff" fill-opacity="1"><g transform="translate(208.447978, 209.184247)"><g><path d="M 22.617188 -20.804688 C 22.382812 -16.785156 20.964844 -13.949219 18.207031 -11.820312 C 16.785156 -10.71875 14.816406 -10.167969 12.375 -10.167969 C 12.136719 -10.167969 11.902344 -10.167969 11.664062 -10.167969 C 11.425781 -10.167969 11.113281 -10.167969 10.875 -10.246094 C 10.167969 -9.613281 9.773438 -8.984375 9.773438 -8.273438 C 9.773438 -7.328125 10.5625 -6.777344 11.742188 -6.460938 C 12.925781 -6.070312 14.34375 -5.832031 15.839844 -5.59375 C 18.363281 -5.28125 21.042969 -4.648438 23.25 -3.152344 C 25.378906 -1.65625 26.875 0.628906 26.875 4.414062 C 26.875 8.589844 25.0625 11.425781 22.539062 13.082031 C 19.9375 14.738281 16.472656 15.445312 13.242188 15.445312 C 9.457031 15.367188 6.226562 14.816406 4.019531 13.554688 C 1.734375 12.292969 0.472656 10.246094 0.472656 7.09375 C 0.472656 5.59375 1.261719 4.335938 2.441406 3.230469 C 3.625 2.128906 5.203125 1.261719 6.699219 0.550781 C 4.097656 -0.15625 1.890625 -1.8125 1.890625 -5.203125 C 1.890625 -6.460938 2.601562 -7.722656 3.546875 -8.90625 C 4.492188 -10.089844 5.675781 -11.035156 6.855469 -11.664062 C 4.570312 -13.160156 3.46875 -15.527344 2.917969 -17.496094 C 2.601562 -18.679688 2.363281 -19.859375 2.285156 -21.042969 L 2.285156 -32.785156 C 2.601562 -36.804688 3.863281 -39.722656 6.621094 -42.007812 C 7.960938 -43.1875 9.929688 -43.742188 12.375 -43.742188 C 16.394531 -43.742188 18.835938 -41.929688 20.332031 -39.800781 C 20.886719 -40.351562 21.832031 -41.296875 23.09375 -42.164062 C 24.273438 -43.03125 25.613281 -43.742188 26.875 -43.742188 L 26.875 -36.648438 C 24.746094 -36.648438 23.171875 -36.253906 22.226562 -35.703125 C 22.304688 -35.308594 22.382812 -34.914062 22.460938 -34.675781 C 22.460938 -34.363281 22.460938 -34.046875 22.539062 -33.808594 C 22.617188 -33.574219 22.617188 -33.257812 22.617188 -33.023438 Z M 14.816406 -32.46875 C 14.816406 -33.96875 14.5 -34.914062 13.871094 -35.78125 C 13.554688 -36.175781 13.082031 -36.410156 12.375 -36.410156 C 11.113281 -36.410156 10.480469 -35.386719 10.246094 -34.441406 C 10.089844 -33.890625 10.007812 -33.179688 10.089844 -32.46875 L 10.089844 -20.648438 C 10.007812 -19.152344 10.246094 -18.207031 10.953125 -17.417969 C 11.269531 -17.023438 11.742188 -16.785156 12.375 -16.785156 C 13.714844 -16.785156 14.265625 -17.734375 14.582031 -18.679688 C 14.738281 -19.230469 14.816406 -19.9375 14.816406 -20.648438 Z M 11.113281 1.96875 C 9.457031 2.917969 8.195312 4.097656 8.195312 5.753906 C 8.195312 7.410156 9.695312 8.75 13.398438 8.75 C 14.738281 8.75 16.234375 8.511719 17.417969 8.039062 C 18.597656 7.566406 19.464844 6.855469 19.464844 5.832031 C 19.464844 5.121094 19.386719 4.570312 18.835938 4.019531 C 18.207031 3.46875 17.179688 3.074219 15.210938 2.757812 Z M 11.113281 1.96875 "/></g></g></g><g fill="#ffffff" fill-opacity="1"><g transform="translate(230.907058, 209.184247)"><g><path d="M 11.113281 0 L 3.152344 0 L 3.152344 -57.925781 L 11.113281 -57.925781 L 11.113281 -39.484375 C 11.269531 -39.5625 11.585938 -39.878906 12.058594 -40.351562 C 12.925781 -41.21875 14.105469 -42.402344 15.527344 -43.1875 C 16.234375 -43.582031 16.867188 -43.742188 17.574219 -43.742188 C 19.703125 -43.742188 21.199219 -42.480469 22.144531 -40.902344 C 23.09375 -39.25 23.566406 -37.121094 23.566406 -35.308594 L 23.566406 0 L 15.605469 0 L 15.605469 -34.125 C 15.605469 -35.78125 14.660156 -36.015625 13.714844 -36.015625 C 12.847656 -36.015625 12.375 -35.542969 11.820312 -34.992188 C 11.585938 -34.675781 11.347656 -34.363281 11.113281 -33.96875 Z M 11.113281 0 "/></g></g></g><g fill="#ffffff" fill-opacity="1"><g transform="translate(252.9721, 209.184247)"><g><path d="M 12.765625 -53.75 L 12.765625 -43.109375 L 18.207031 -43.109375 L 18.207031 -35.9375 L 12.765625 -35.9375 L 12.765625 -14.5 C 12.765625 -13.160156 12.765625 -11.425781 13.082031 -10.007812 C 13.398438 -8.589844 14.027344 -7.410156 15.289062 -7.410156 C 15.921875 -7.410156 16.707031 -7.488281 17.257812 -7.566406 C 17.574219 -7.644531 17.890625 -7.644531 18.207031 -7.722656 L 18.207031 0.078125 C 17.8125 0.15625 17.417969 0.316406 17.023438 0.394531 C 16.234375 0.550781 15.210938 0.628906 13.949219 0.628906 C 9.300781 0.628906 7.09375 -1.734375 5.988281 -4.730469 C 4.886719 -7.722656 4.808594 -11.347656 4.808594 -13.871094 L 4.808594 -35.9375 L 0.789062 -35.9375 L 0.789062 -43.109375 L 4.808594 -43.109375 L 4.808594 -53.75 Z M 12.765625 -53.75 "/></g></g></g><g fill="#ffffff" fill-opacity="1"><g transform="translate(267.78694, 209.184247)"><g><path d="M 15.210938 -32.078125 C 15.210938 -33.101562 15.210938 -34.363281 14.894531 -35.386719 C 14.5 -36.332031 13.871094 -37.121094 12.609375 -37.121094 C 11.585938 -37.121094 10.953125 -36.332031 10.640625 -35.386719 C 10.246094 -34.441406 10.167969 -33.101562 10.167969 -32.078125 C 10.167969 -30.738281 10.875 -29.316406 11.902344 -28.058594 C 12.847656 -26.796875 14.105469 -25.535156 15.367188 -24.351562 C 17.023438 -22.699219 18.992188 -20.804688 20.332031 -18.679688 C 21.671875 -16.472656 22.699219 -14.027344 22.699219 -11.191406 C 22.699219 -8.433594 22.066406 -5.515625 20.492188 -3.308594 C 18.835938 -1.023438 16.3125 0.628906 12.53125 0.628906 C 7.722656 0.628906 4.886719 -1.578125 3.308594 -4.253906 C 1.734375 -6.933594 1.417969 -10.246094 1.417969 -12.53125 L 8.828125 -12.53125 C 8.828125 -11.347656 8.90625 -9.695312 9.457031 -8.433594 C 10.007812 -7.09375 10.875 -5.988281 12.53125 -5.988281 C 14.816406 -5.988281 15.289062 -8.667969 15.289062 -11.191406 C 15.289062 -13.792969 12.765625 -16.394531 10.324219 -18.835938 C 8.433594 -20.648438 6.621094 -22.304688 5.203125 -24.429688 C 3.78125 -26.558594 2.757812 -28.925781 2.757812 -32.078125 C 2.757812 -34.597656 3.230469 -37.515625 4.730469 -39.800781 C 6.226562 -42.007812 8.667969 -43.660156 12.453125 -43.742188 C 17.101562 -43.820312 19.703125 -42.085938 21.042969 -39.800781 C 22.382812 -37.515625 22.617188 -34.519531 22.617188 -32.078125 Z M 15.210938 -32.078125 "/></g></g></g><g fill="#ffffff" fill-opacity="1"><g transform="translate(287.566596, 209.184247)"><g><path d="M 2.050781 -8.75 L 10.324219 -8.75 L 10.324219 0 L 2.050781 0 Z M 2.050781 -8.75 "/></g></g></g></svg>